<?xml version="1.0" standalone="no"?><!DOCTYPE svg PUBLIC "-//W3C//DTD SVG 1.1//EN" "http://www.w3.org/Graphics/SVG/1.1/DTD/svg11.dtd"><svg xmlns="http://www.w3.org/2000/svg" viewBox="0 0 500 500" version="1.1"><clipPath id="box"><rect x="0" y="0" width="500" height="500" style="fill:none;stroke:none;" /></clipPath><g clip-path="url(#box)"><rect x="0.00" y="0.00" width="500.00" height="500.00" style="fill:#FFFFFF;stroke:none;" /><path d="M0.00 375.00 L500.00 375.00 M0.00 125.00 L500.00 125.00 M35.00 0.00 L35.00 500.00 M107.00 0.00 L107.00 500.00 M178.00 0.00 L178.00 500.00 M250.00 0.00 L250.00 500.00 M321.00 0.00 L321.00 500.00 M392.00 0.00 L392.00 500.00 M464.00 0.00 L464.00 500.00 " style="fill:none;stroke:#D0D0D0;stroke-width:1;" /><path d="M250.00 0.00 L250.00 500.00 " style="fill:none;stroke:#000000;stroke-width:1;" /><path d="M0.00 375.00 L500.00 375.00 " style="fill:none;stroke:#000000;stroke-width:1;" /><path d="M-10.00 250.00 L-0.25 367.70 L0.75 367.60 L2.75 367.39 L4.75 367.18 L6.75 366.97 L8.75 366.75 L10.75 366.52 L12.75 366.29 L14.75 366.05 L16.75 365.81 L18.75 365.56 L20.75 365.30 L22.75 365.03 L24.75 364.76 L26.75 364.48 L28.75 364.20 L30.75 363.90 L32.75 363.60 L34.75 363.30 L36.75 362.98 L38.75 362.65 L40.75 362.32 L42.75 361.98 L44.75 361.63 L46.75 361.27 L48.75 360.90 L50.75 360.53 L52.75 360.14 L54.75 359.74 L56.75 359.34 L58.75 358.92 L60.75 358.49 L62.75 358.06 L64.75 357.61 L66.75 357.15 L68.75 356.68 L70.75 356.20 L72.75 355.71 L74.75 355.20 L76.75 354.69 L78.75 354.16 L80.75 353.62 L82.75 353.06 L84.75 352.50 L86.75 351.92 L88.75 351.32 L90.75 350.72 L92.75 350.10 L94.75 349.46 L96.75 348.81 L98.75 348.15 L100.75 347.47 L102.75 346.78 L104.75 346.07 L106.75 345.34 L108.75 344.60 L110.75 343.85 L112.75 343.08 L114.75 342.29 L116.75 341.48 L118.75 340.66 L120.75 339.83 L122.75 338.97 L124.75 338.10 L126.75 337.21 L128.75 336.30 L130.75 335.38 L132.75 334.43 L134.75 333.47 L136.75 332.50 L138.75 331.50 L140.75 330.48 L142.72 329.47 L144.66 328.45 L146.56 327.43 L148.43 326.41 L150.27 325.40 L152.08 324.38 L153.86 323.37 L155.62 322.35 L157.35 321.34 L159.05 320.32 L160.74 319.31 L162.40 318.30 L164.04 317.29 L165.66 316.27 L167.26 315.26 L168.84 314.25 L170.40 313.24 L171.94 312.23 L173.47 311.22 L174.98 310.21 L176.48 309.20 L177.96 308.19 L179.42 307.18 L180.88 306.17 L182.32 305.16 L183.74 304.15 L185.15 303.14 L186.55 302.13 L187.94 301.12 L189.32 300.12 L190.69 299.11 L192.05 298.10 L193.39 297.09 L194.73 296.09 L196.06 295.08 L197.37 294.07 L198.68 293.07 L199.98 292.06 L201.28 291.05 L202.56 290.05 L203.84 289.04 L205.11 288.04 L206.37 287.03 L207.63 286.03 L208.88 285.02 L210.12 284.02 L211.36 283.01 L212.59 282.01 L213.82 281.00 L215.04 280.00 L216.25 278.99 L217.46 277.99 L218.67 276.99 L219.87 275.98 L221.06 274.98 L222.26 273.98 L223.44 272.97 L224.63 271.97 L225.81 270.97 L226.99 269.96 L228.16 268.96 L229.33 267.96 L230.50 266.96 L231.67 265.95 L232.83 264.95 L233.99 263.95 L235.15 262.95 L236.31 261.95 L237.46 260.94 L238.61 259.94 L239.76 258.94 L240.91 257.94 L242.06 256.94 L243.21 255.94 L244.35 254.94 L245.50 253.94 L246.64 252.94 L247.79 251.94 L248.93 250.94 L250.07 249.94 L251.22 248.94 L252.36 247.94 L253.50 246.94 L254.65 245.94 L255.79 244.94 L256.93 243.94 L258.08 242.94 L259.22 241.94 L260.37 240.94 L261.52 239.94 L262.67 238.94 L263.82 237.94 L264.97 236.95 L266.13 235.95 L267.28 234.95 L268.44 233.95 L269.60 232.95 L270.77 231.96 L271.93 230.96 L273.10 229.96 L274.27 228.96 L275.45 227.97 L276.63 226.97 L277.81 225.97 L278.99 224.98 L280.18 223.98 L281.37 222.98 L282.57 221.99 L283.77 220.99 L284.98 219.99 L286.19 219.00 L287.40 218.00 L288.62 217.01 L289.85 216.01 L291.08 215.01 L292.32 214.02 L293.56 213.02 L294.81 212.03 L296.06 211.04 L297.33 210.04 L298.60 209.05 L299.87 208.05 L301.16 207.06 L302.45 206.06 L303.75 205.07 L305.06 204.08 L306.37 203.08 L307.70 202.09 L309.03 201.10 L310.38 200.11 L311.73 199.11 L313.10 198.12 L314.47 197.13 L315.86 196.14 L317.26 195.15 L318.67 194.15 L320.09 193.16 L321.52 192.17 L322.97 191.18 L324.43 190.19 L325.90 189.20 L327.39 188.21 L328.90 187.22 L330.42 186.23 L331.96 185.24 L333.51 184.25 L335.08 183.26 L336.67 182.28 L338.28 181.29 L339.91 180.30 L341.55 179.31 L343.22 178.33 L344.91 177.34 L346.63 176.35 L348.37 175.37 L350.13 174.38 L351.92 173.40 L353.73 172.41 L355.58 171.43 L357.45 170.44 L359.36 169.46 L361.30 168.48 L363.27 167.50 L365.27 166.52 L367.27 165.56 L369.27 164.61 L371.27 163.69 L373.27 162.78 L375.27 161.89 L377.27 161.02 L379.27 160.17 L381.27 159.33 L383.27 158.51 L385.27 157.70 L387.27 156.92 L389.27 156.15 L391.27 155.39 L393.27 154.65 L395.27 153.93 L397.27 153.22 L399.27 152.52 L401.27 151.85 L403.27 151.18 L405.27 150.53 L407.27 149.90 L409.27 149.28 L411.27 148.67 L413.27 148.08 L415.27 147.50 L417.27 146.93 L419.27 146.38 L421.27 145.84 L423.27 145.31 L425.27 144.79 L427.27 144.29 L429.27 143.79 L431.27 143.31 L433.27 142.84 L435.27 142.39 L437.27 141.94 L439.27 141.50 L441.27 141.07 L443.27 140.66 L445.27 140.25 L447.27 139.86 L449.27 139.47 L451.27 139.09 L453.27 138.73 L455.27 138.37 L457.27 138.02 L459.27 137.68 L461.27 137.34 L463.27 137.02 L465.27 136.70 L467.27 136.39 L469.27 136.09 L471.27 135.80 L473.27 135.51 L475.27 135.24 L477.27 134.96 L479.27 134.70 L481.27 134.44 L483.27 134.19 L485.27 133.95 L487.27 133.71 L489.27 133.48 L491.27 133.25 L493.27 133.03 L495.27 132.81 L497.27 132.61 L499.27 132.40 " style="fill:none;stroke:#006FFF;stroke-width:1;" /></g></svg>
