<?xml version="1.0" standalone="no"?><!DOCTYPE svg PUBLIC "-//W3C//DTD SVG 1.1//EN" "http://www.w3.org/Graphics/SVG/1.1/DTD/svg11.dtd"><svg xmlns="http://www.w3.org/2000/svg" viewBox="0 0 500 500" version="1.1"><clipPath id="box"><rect x="0" y="0" width="500" height="500" style="fill:none;stroke:none;" /></clipPath><g clip-path="url(#box)"><rect x="0.00" y="0.00" width="500.00" height="500.00" style="fill:#FFFFFF;stroke:none;" /><path d="M0.00 375.00 L500.00 375.00 M0.00 125.00 L500.00 125.00 M35.00 0.00 L35.00 500.00 M107.00 0.00 L107.00 500.00 M178.00 0.00 L178.00 500.00 M250.00 0.00 L250.00 500.00 M321.00 0.00 L321.00 500.00 M392.00 0.00 L392.00 500.00 M464.00 0.00 L464.00 500.00 " style="fill:none;stroke:#D0D0D0;stroke-width:1;" /><path d="M250.00 0.00 L250.00 500.00 " style="fill:none;stroke:#000000;stroke-width:1;" /><path d="M0.00 375.00 L500.00 375.00 " style="fill:none;stroke:#000000;stroke-width:1;" /><path d="M-10.00 250.00 L-0.25 375.00 L0.75 375.00 L2.75 375.00 L4.75 375.00 L6.75 375.00 L8.75 375.00 L10.75 375.00 L12.75 375.00 L14.75 375.00 L16.75 375.00 L18.75 375.00 L20.75 375.00 L22.75 375.00 L24.75 375.00 L26.75 375.00 L28.75 375.00 L30.75 375.00 L32.75 375.00 L34.75 375.00 L36.75 375.00 L38.75 375.00 L40.75 375.00 L42.75 375.00 L44.75 375.00 L46.75 375.00 L48.75 375.00 L50.75 375.00 L52.75 375.00 L54.75 375.00 L56.75 375.00 L58.75 375.00 L60.75 375.00 L62.75 375.00 L64.75 375.00 L66.75 375.00 L68.75 375.00 L70.75 375.00 L72.75 375.00 L74.75 375.00 L76.75 375.00 L78.75 375.00 L80.75 375.00 L82.75 375.00 L84.75 375.00 L86.75 375.00 L88.75 375.00 L90.75 375.00 L92.75 375.00 L94.75 375.00 L96.75 375.00 L98.75 375.00 L100.75 375.00 L102.75 375.00 L104.75 375.00 L106.75 375.00 L108.75 375.00 L110.75 375.00 L112.75 375.00 L114.75 375.00 L116.75 375.00 L118.75 375.00 L120.75 375.00 L122.75 375.00 L124.75 375.00 L126.75 375.00 L128.75 375.00 L130.75 375.00 L132.75 375.00 L134.75 375.00 L136.75 375.00 L138.75 375.00 L140.75 375.00 L142.75 375.00 L144.75 375.00 L146.75 375.00 L148.75 375.00 L150.75 375.00 L152.75 375.00 L154.75 375.00 L156.75 375.00 L158.75 375.00 L160.75 375.00 L162.75 375.00 L164.75 375.00 L166.75 375.00 L168.75 375.00 L170.75 375.00 L172.75 375.00 L174.75 375.00 L176.75 375.00 L178.75 375.00 L180.75 375.00 L182.75 375.00 L184.75 375.00 L186.75 375.00 L188.75 375.00 L190.75 375.00 L192.75 375.00 L194.75 375.00 L196.75 375.00 L198.75 375.00 L200.75 375.00 L202.75 375.00 L204.75 375.00 L206.75 375.00 L208.75 375.00 L210.75 375.00 L212.75 375.00 L214.75 375.00 L216.75 375.00 L218.75 375.00 L220.75 375.00 L222.75 375.00 L224.75 375.00 L226.75 375.00 L228.75 375.00 L230.75 375.00 L232.75 375.00 L234.75 375.00 L236.75 375.00 L238.75 375.00 L240.75 375.00 L242.75 375.00 L244.75 375.00 L246.75 375.00 L248.75 375.00 L250.75 125.00 L250.76 125.00 L252.76 125.00 L254.76 125.00 L256.76 125.00 L258.76 125.00 L260.76 125.00 L262.76 125.00 L264.76 125.00 L266.76 125.00 L268.76 125.00 L270.76 125.00 L272.76 125.00 L274.76 125.00 L276.76 125.00 L278.76 125.00 L280.76 125.00 L282.76 125.00 L284.76 125.00 L286.76 125.00 L288.76 125.00 L290.76 125.00 L292.76 125.00 L294.76 125.00 L296.76 125.00 L298.76 125.00 L300.76 125.00 L302.76 125.00 L304.76 125.00 L306.76 125.00 L308.76 125.00 L310.76 125.00 L312.76 125.00 L314.76 125.00 L316.76 125.00 L318.76 125.00 L320.76 125.00 L322.76 125.00 L324.76 125.00 L326.76 125.00 L328.76 125.00 L330.76 125.00 L332.76 125.00 L334.76 125.00 L336.76 125.00 L338.76 125.00 L340.76 125.00 L342.76 125.00 L344.76 125.00 L346.76 125.00 L348.76 125.00 L350.76 125.00 L352.76 125.00 L354.76 125.00 L356.76 125.00 L358.76 125.00 L360.76 125.00 L362.76 125.00 L364.76 125.00 L366.76 125.00 L368.76 125.00 L370.76 125.00 L372.76 125.00 L374.76 125.00 L376.76 125.00 L378.76 125.00 L380.76 125.00 L382.76 125.00 L384.76 125.00 L386.76 125.00 L388.76 125.00 L390.76 125.00 L392.76 125.00 L394.76 125.00 L396.76 125.00 L398.76 125.00 L400.76 125.00 L402.76 125.00 L404.76 125.00 L406.76 125.00 L408.76 125.00 L410.76 125.00 L412.76 125.00 L414.76 125.00 L416.76 125.00 L418.76 125.00 L420.76 125.00 L422.76 125.00 L424.76 125.00 L426.76 125.00 L428.76 125.00 L430.76 125.00 L432.76 125.00 L434.76 125.00 L436.76 125.00 L438.76 125.00 L440.76 125.00 L442.76 125.00 L444.76 125.00 L446.76 125.00 L448.76 125.00 L450.76 125.00 L452.76 125.00 L454.76 125.00 L456.76 125.00 L458.76 125.00 L460.76 125.00 L462.76 125.00 L464.76 125.00 L466.76 125.00 L468.76 125.00 L470.76 125.00 L472.76 125.00 L474.76 125.00 L476.76 125.00 L478.76 125.00 L480.76 125.00 L482.76 125.00 L484.76 125.00 L486.76 125.00 L488.76 125.00 L490.76 125.00 L492.76 125.00 L494.76 125.00 L496.76 125.00 L498.76 125.00 " style="fill:none;stroke:#006FFF;stroke-width:1;" /></g></svg>
