<svg xmlns="http://www.w3.org/2000/svg" viewBox="0 0 64 64" width="25" height="25" style="margin-right: 10px"><g id="flat"><path d="M52,23a20,20,0,0,0-40,0V53a4,4,0,0,0,8,0V48a4,4,0,0,0,8,0v9a4,4,0,0    ,0,8,0V44a4,4,0,0,0,8,0V55a4,4,0,0,0,8,0Z" style="fill:#f98c96"></path><rect x="19" y="44" width="2" height="2" style="fill:#e4544f"></rect><rect x="43" y="40" width="2" height="2" style="fill:#e4544f"></rect><path d="M32,37A12,12,0,0,0,44,25H20A12,12,0,0,0,32,37Z" style="fill:#fff"></path><path d="M32,33a8,8,0,0,0,8-8H24A8,8,0,0,0,32,33Z" style="fill:#ffd782"></path><path d="M32,29a4,4,0,0,0,4-4H28A4,4,0,0,0,32,29Z" style="fill:#e4544f"></path><path d="M32,13h0A12,12,0,0,1,44,25v0a0,0,0,0,1,0,0H20a0,0,0,0,1,0,0v0A12,12,0,0,1,32,13Z" style="fill:#394d5    c"></path><path d="M26,22H24c0-4.746,5.233-6,8-6l0,2C31.757,18,26,18.064,26,22Z" style="fill:#98a5a6"></path><path d="M44.132,14.5C40.476,8.1,32.083,8,32,8V6c.392,0,9.629.085,13.868,7.5Z    " style="fill:#e4544f"></path><circle cx="7" cy="10" r="3" style="fill:#f98c96"></circle><circle cx="57" cy="7" r="4" style="fill:#f98c96"></circle><circle cx="59" cy="37" r="3" style="fill:#f98c9    6"></circle><circle cx="5" cy="27" r="2" style="fill:#f98c96"></circle></g></svg>
